{
    "asset" : {
        "generator" : "Khronos glTF Blender I/O v0.9.36",
        "version" : "2.0"
    },
    "scene" : 0,
    "scenes" : [
        {
            "name" : "Scene",
            "nodes" : [
                3
            ]
        }
    ],
    "nodes" : [
        {
            "mesh" : 0,
            "name" : "character_dogArmLeft",
            "translation" : [
                0.20404481887817383,
                0.6335563659667969,
                0
            ]
        },
        {
            "mesh" : 1,
            "name" : "character_dogArmRight",
            "translation" : [
                -0.20404601097106934,
                0.6335563063621521,
                0
            ]
        },
        {
            "mesh" : 2,
            "name" : "character_dogHead",
            "translation" : [
                0,
                0.7037111520767212,
                0
            ]
        },
        {
            "children" : [
                0,
                1,
                2
            ],
            "mesh" : 3,
            "name" : "character_dog"
        }
    ],
    "materials" : [
        {
            "name" : "Beige",
            "pbrMetallicRoughness" : {
                "baseColorFactor" : [
                    0.7029160857200623,
                    0.4253237545490265,
                    0.20689357817173004,
                    1
                ],
                "metallicFactor" : 0,
                "roughnessFactor" : 0.5
            }
        },
        {
            "name" : "Red",
            "pbrMetallicRoughness" : {
                "baseColorFactor" : [
                    1,
                    0.02505292184650898,
                    0.11802464723587036,
                    1
                ],
                "metallicFactor" : 0,
                "roughnessFactor" : 0.5
            }
        },
        {
            "name" : "Black",
            "pbrMetallicRoughness" : {
                "baseColorFactor" : [
                    0.019794002175331116,
                    0.03207586705684662,
                    0.037408243864774704,
                    1
                ],
                "metallicFactor" : 0,
                "roughnessFactor" : 0.5
            }
        }
    ],
    "meshes" : [
        {
            "name" : "Cube.027",
            "primitives" : [
                {
                    "attributes" : {
                        "POSITION" : 0,
                        "NORMAL" : 1,
                        "TEXCOORD_0" : 2
                    },
                    "indices" : 3,
                    "material" : 0
                }
            ]
        },
        {
            "name" : "Cube.026",
            "primitives" : [
                {
                    "attributes" : {
                        "POSITION" : 4,
                        "NORMAL" : 5,
                        "TEXCOORD_0" : 6
                    },
                    "indices" : 7,
                    "material" : 0
                }
            ]
        },
        {
            "name" : "Cube.1339",
            "primitives" : [
                {
                    "attributes" : {
                        "POSITION" : 8,
                        "NORMAL" : 9,
                        "TEXCOORD_0" : 10
                    },
                    "indices" : 11,
                    "material" : 0
                },
                {
                    "attributes" : {
                        "POSITION" : 12,
                        "NORMAL" : 13,
                        "TEXCOORD_0" : 14
                    },
                    "indices" : 15,
                    "material" : 1
                },
                {
                    "attributes" : {
                        "POSITION" : 16,
                        "NORMAL" : 17,
                        "TEXCOORD_0" : 18
                    },
                    "indices" : 19,
                    "material" : 2
                }
            ]
        },
        {
            "name" : "Cube.029",
            "primitives" : [
                {
                    "attributes" : {
                        "POSITION" : 20,
                        "NORMAL" : 21,
                        "TEXCOORD_0" : 22
                    },
                    "indices" : 23,
                    "material" : 0
                }
            ]
        }
    ],
    "accessors" : [
        {
            "bufferView" : 0,
            "componentType" : 5126,
            "count" : 199,
            "max" : [
                0.26490139961242676,
                0.09418356418609619,
                0.09058663994073868
            ],
            "min" : [
                -0.11533478647470474,
                -0.47665560245513916,
                -0.0905865803360939
            ],
            "type" : "VEC3"
        },
        {
            "bufferView" : 1,
            "componentType" : 5126,
            "count" : 199,
            "type" : "VEC3"
        },
        {
            "bufferView" : 2,
            "componentType" : 5126,
            "count" : 199,
            "type" : "VEC2"
        },
        {
            "bufferView" : 3,
            "componentType" : 5123,
            "count" : 978,
            "type" : "SCALAR"
        },
        {
            "bufferView" : 4,
            "componentType" : 5126,
            "count" : 216,
            "max" : [
                0.11533510684967041,
                0.09418362379074097,
                0.09058663249015808
            ],
            "min" : [
                -0.26490116119384766,
                -0.4766555428504944,
                -0.0905865952372551
            ],
            "type" : "VEC3"
        },
        {
            "bufferView" : 5,
            "componentType" : 5126,
            "count" : 216,
            "type" : "VEC3"
        },
        {
            "bufferView" : 6,
            "componentType" : 5126,
            "count" : 216,
            "type" : "VEC2"
        },
        {
            "bufferView" : 7,
            "componentType" : 5123,
            "count" : 978,
            "type" : "SCALAR"
        },
        {
            "bufferView" : 8,
            "componentType" : 5126,
            "count" : 912,
            "max" : [
                0.6946033835411072,
                0.9339144229888916,
                0.675747811794281
            ],
            "min" : [
                -0.6946104168891907,
                0,
                -0.49999961256980896
            ],
            "type" : "VEC3"
        },
        {
            "bufferView" : 9,
            "componentType" : 5126,
            "count" : 912,
            "type" : "VEC3"
        },
        {
            "bufferView" : 10,
            "componentType" : 5126,
            "count" : 912,
            "type" : "VEC2"
        },
        {
            "bufferView" : 11,
            "componentType" : 5123,
            "count" : 3600,
            "type" : "SCALAR"
        },
        {
            "bufferView" : 12,
            "componentType" : 5126,
            "count" : 64,
            "max" : [
                0.06676916778087616,
                0.28054362535476685,
                0.6090513467788696
            ],
            "min" : [
                -0.06676924228668213,
                0.08927077054977417,
                0.541892945766449
            ],
            "type" : "VEC3"
        },
        {
            "bufferView" : 13,
            "componentType" : 5126,
            "count" : 64,
            "type" : "VEC3"
        },
        {
            "bufferView" : 14,
            "componentType" : 5126,
            "count" : 64,
            "type" : "VEC2"
        },
        {
            "bufferView" : 15,
            "componentType" : 5123,
            "count" : 222,
            "type" : "SCALAR"
        },
        {
            "bufferView" : 16,
            "componentType" : 5126,
            "count" : 183,
            "max" : [
                0.33058083057403564,
                0.4932206869125366,
                0.728752076625824
            ],
            "min" : [
                -0.33058077096939087,
                0.264190673828125,
                0.3631858825683594
            ],
            "type" : "VEC3"
        },
        {
            "bufferView" : 17,
            "componentType" : 5126,
            "count" : 183,
            "type" : "VEC3"
        },
        {
            "bufferView" : 18,
            "componentType" : 5126,
            "count" : 183,
            "type" : "VEC2"
        },
        {
            "bufferView" : 19,
            "componentType" : 5123,
            "count" : 594,
            "type" : "SCALAR"
        },
        {
            "bufferView" : 20,
            "componentType" : 5126,
            "count" : 289,
            "max" : [
                0.33807387948036194,
                0.7255613207817078,
                0.3499997556209564
            ],
            "min" : [
                -0.33807387948036194,
                -2.2351741790771484e-08,
                -0.3499997556209564
            ],
            "type" : "VEC3"
        },
        {
            "bufferView" : 21,
            "componentType" : 5126,
            "count" : 289,
            "type" : "VEC3"
        },
        {
            "bufferView" : 22,
            "componentType" : 5126,
            "count" : 289,
            "type" : "VEC2"
        },
        {
            "bufferView" : 23,
            "componentType" : 5123,
            "count" : 1284,
            "type" : "SCALAR"
        }
    ],
    "bufferViews" : [
        {
            "buffer" : 0,
            "byteLength" : 2388,
            "byteOffset" : 0
        },
        {
            "buffer" : 0,
            "byteLength" : 2388,
            "byteOffset" : 2388
        },
        {
            "buffer" : 0,
            "byteLength" : 1592,
            "byteOffset" : 4776
        },
        {
            "buffer" : 0,
            "byteLength" : 1956,
            "byteOffset" : 6368
        },
        {
            "buffer" : 0,
            "byteLength" : 2592,
            "byteOffset" : 8324
        },
        {
            "buffer" : 0,
            "byteLength" : 2592,
            "byteOffset" : 10916
        },
        {
            "buffer" : 0,
            "byteLength" : 1728,
            "byteOffset" : 13508
        },
        {
            "buffer" : 0,
            "byteLength" : 1956,
            "byteOffset" : 15236
        },
        {
            "buffer" : 0,
            "byteLength" : 10944,
            "byteOffset" : 17192
        },
        {
            "buffer" : 0,
            "byteLength" : 10944,
            "byteOffset" : 28136
        },
        {
            "buffer" : 0,
            "byteLength" : 7296,
            "byteOffset" : 39080
        },
        {
            "buffer" : 0,
            "byteLength" : 7200,
            "byteOffset" : 46376
        },
        {
            "buffer" : 0,
            "byteLength" : 768,
            "byteOffset" : 53576
        },
        {
            "buffer" : 0,
            "byteLength" : 768,
            "byteOffset" : 54344
        },
        {
            "buffer" : 0,
            "byteLength" : 512,
            "byteOffset" : 55112
        },
        {
            "buffer" : 0,
            "byteLength" : 444,
            "byteOffset" : 55624
        },
        {
            "buffer" : 0,
            "byteLength" : 2196,
            "byteOffset" : 56068
        },
        {
            "buffer" : 0,
            "byteLength" : 2196,
            "byteOffset" : 58264
        },
        {
            "buffer" : 0,
            "byteLength" : 1464,
            "byteOffset" : 60460
        },
        {
            "buffer" : 0,
            "byteLength" : 1188,
            "byteOffset" : 61924
        },
        {
            "buffer" : 0,
            "byteLength" : 3468,
            "byteOffset" : 63112
        },
        {
            "buffer" : 0,
            "byteLength" : 3468,
            "byteOffset" : 66580
        },
        {
            "buffer" : 0,
            "byteLength" : 2312,
            "byteOffset" : 70048
        },
        {
            "buffer" : 0,
            "byteLength" : 2568,
            "byteOffset" : 72360
        }
    ],
    "buffers" : [
        {
            "byteLength" : 74928,
            "uri" : "data:application/octet-stream;base64,"
        }
    ]
}
